<svg width="83" height="27" viewBox="0 0 83 27" fill="none" xmlns="http://www.w3.org/2000/svg"><path d="M14.557.25c7.161.182 12.911 6.045 12.911 13.25l-.004.342c-.181 7.161-6.044 12.91-13.249 12.91l-.342-.003C6.825 26.571 1.144 20.889.966 13.842L.962 13.5C.962 6.18 6.896.247 14.215.247l.342.004ZM13.09 20.509c-2.181-1.5-4.168-1.776-5.805-1.572a8.446 8.446 0 0 0-1.955.492.727.727 0 0 0-.314 1.13 11.574 11.574 0 0 0 9.198 4.539c2.468 0 4.753-.773 6.633-2.087.217-.152.054-.498-.21-.467-2.27.267-4.875-.198-7.547-2.035Zm.34-5.8c-2.406-1.499-4.599-1.774-6.404-1.57-1.439.162-2.7.636-3.672 1.142-.334.174-.672.479-.62.852.096.677.249 1.335.455 1.97.147.45.662.644 1.104.472.79-.309 1.684-.56 2.66-.68 2.281-.284 4.914.148 7.596 1.992 2.192 1.507 4.163 1.802 5.773 1.612 1.054-.124 2.525-.802 3.696-1.453.25-.139.528-.272.652-.53.2-.414.374-.841.524-1.28.215-.634-.439-1.173-1.078-.976-.723.222-1.512.395-2.358.485-2.505.267-5.38-.198-8.327-2.035Zm.05-5.689C11.224 7.734 9.169 7.5 7.476 7.673a10.626 10.626 0 0 0-3.534 1.023c-.192.093-.38.215-.46.412a11.52 11.52 0 0 0-.536 1.652c-.151.622.49 1.103 1.098.905a13.231 13.231 0 0 1 2.616-.57c2.517-.284 5.422.148 8.381 1.992 2.42 1.507 4.594 1.802 6.371 1.612a9.957 9.957 0 0 0 3.625-1.137c.372-.2.772-.52.74-.94a11.548 11.548 0 0 0-.333-2.014c-.12-.469-.636-.693-1.092-.53-.895.317-1.925.575-3.065.686-2.348.229-5.043-.17-7.806-1.745Zm.734-7.116a11.545 11.545 0 0 0-7.682 2.913c-.486.43-.047 1.172.6 1.106 2.359-.243 5.083.127 7.858 1.708 2.267 1.292 4.305 1.544 5.971 1.382a9.839 9.839 0 0 0 2.686-.66.736.736 0 0 0 .346-1.086 11.587 11.587 0 0 0-9.779-5.363ZM37.07 8.387c0-.251-.073-.444-.219-.576-.132-.146-.331-.219-.596-.219h-3.618V5.584h11.112v2.008h-3.618c-.252 0-.45.073-.596.219-.146.132-.219.325-.219.576V19.5H37.07V8.387Zm9.33 11.61c.079-.239.119-.457.119-.656s-.04-.41-.12-.636L42.682 9.48h2.246l2.724 7.236h.08l2.464-7.236h2.227l-5.09 13.995h-2.206l1.272-3.479Zm11.179-.199c-.901 0-1.69-.212-2.366-.636-.675-.437-1.206-1.054-1.59-1.849-.371-.808-.557-1.75-.557-2.823s.186-2.007.557-2.803c.384-.808.915-1.424 1.59-1.848.676-.438 1.465-.656 2.366-.656.822 0 1.544.192 2.167.576.623.371 1.106.915 1.451 1.63l-.318.358V5.584h2.147V19.5h-1.948v-2.545l.278.338c-.345.809-.842 1.432-1.49 1.87-.637.423-1.4.635-2.287.635Zm.457-1.829c.583 0 1.087-.146 1.511-.437a2.857 2.857 0 0 0 1.014-1.213c.239-.53.358-1.14.358-1.829 0-.689-.12-1.292-.358-1.809-.239-.53-.577-.94-1.014-1.232-.424-.292-.928-.438-1.51-.438-.557 0-1.048.146-1.472.438a2.777 2.777 0 0 0-.974 1.213c-.225.516-.338 1.126-.338 1.828 0 1.047.252 1.889.755 2.525.504.636 1.18.954 2.028.954Zm7.3-6.262c0-.715.193-1.265.577-1.65.385-.384.935-.576 1.65-.576h3.2v1.829h-3.3v8.19h-2.126v-7.793Zm11.242 8.091c-1.007 0-1.902-.218-2.684-.656a4.537 4.537 0 0 1-1.789-1.849c-.41-.808-.616-1.742-.616-2.803 0-1.06.205-1.988.616-2.783a4.508 4.508 0 0 1 1.79-1.868c.768-.438 1.663-.656 2.683-.656 1.02 0 1.909.218 2.664.656a4.507 4.507 0 0 1 1.789 1.868c.424.795.636 1.723.636 2.783 0 1.06-.212 1.995-.636 2.803a4.537 4.537 0 0 1-1.79 1.85c-.754.436-1.642.655-2.663.655Zm0-1.829c.583 0 1.093-.139 1.53-.417.438-.292.77-.703.995-1.233.238-.53.358-1.14.358-1.829 0-1.047-.266-1.888-.796-2.524-.517-.636-1.212-.954-2.087-.954-.57 0-1.08.145-1.53.437-.438.291-.776.702-1.014 1.232-.239.517-.358 1.12-.358 1.81 0 1.046.265 1.888.795 2.524.53.636 1.232.954 2.107.954Z" fill="#fff" style="fill:#fff;fill-opacity:1"/></svg>
